<svg version="1.1" viewBox="0.0 0.0 910.9685039370079 667.4041994750656" fill="none" stroke="none" stroke-linecap="square" stroke-miterlimit="10" xmlns:xlink="http://www.w3.org/1999/xlink" xmlns="http://www.w3.org/2000/svg"><clipPath id="p.0"><path d="m0 0l910.9685 0l0 667.4042l-910.9685 0l0 -667.4042z" clip-rule="nonzero"/></clipPath><g clip-path="url(#p.0)"><path fill="#000000" fill-opacity="0.0" d="m0 0l910.9685 0l0 667.4042l-910.9685 0z" fill-rule="evenodd"/><path fill="#ffffff" d="m250.68985 225.35234c-9.779541 4.6286926 -48.74272 1.22435 -69.09068 -4.085205c-20.347977 -5.309555 -39.432297 -18.787704 -52.99713 -27.772125c-13.56485 -8.9844055 -20.347275 -16.196747 -28.39193 -26.134384c-8.044662 -9.937622 -16.090736 -24.914902 -19.876038 -33.491394c-3.7853088 -8.576508 -3.4669342 -13.338936 -2.8358154 -17.96762c0.6311188 -4.628685 1.4179077 -9.804497 6.622528 -9.804497c5.2046204 0 13.090797 6.128418 24.60521 9.804497c11.514412 3.6760788 26.657051 11.027016 44.48124 12.251968c17.824203 1.2249603 48.7406 -3.404335 62.46393 -4.9022446c13.723328 -1.4979095 17.352264 -9.938843 19.876038 -4.085205c2.5237732 5.8536377 -5.521591 26.818901 -4.733383 39.207054c0.78819275 12.388138 6.149887 23.958633 9.462555 35.121826c3.312683 11.163208 20.193024 27.228638 10.413483 31.85733z" fill-rule="evenodd"/><path stroke="#000000" stroke-width="8.0" stroke-linejoin="round" stroke-linecap="butt" stroke-dasharray="32.0,24.0" d="m250.68985 225.35234c-9.779541 4.6286926 -48.74272 1.22435 -69.09068 -4.085205c-20.347977 -5.309555 -39.432297 -18.787704 -52.99713 -27.772125c-13.56485 -8.9844055 -20.347275 -16.196747 -28.39193 -26.134384c-8.044662 -9.937622 -16.090736 -24.914902 -19.876038 -33.491394c-3.7853088 -8.576508 -3.4669342 -13.338936 -2.8358154 -17.96762c0.6311188 -4.628685 1.4179077 -9.804497 6.622528 -9.804497c5.2046204 0 13.090797 6.128418 24.60521 9.804497c11.514412 3.6760788 26.657051 11.027016 44.48124 12.251968c17.824203 1.2249603 48.7406 -3.404335 62.46393 -4.9022446c13.723328 -1.4979095 17.352264 -9.938843 19.876038 -4.085205c2.5237732 5.8536377 -5.521591 26.818901 -4.733383 39.207054c0.78819275 12.388138 6.149887 23.958633 9.462555 35.121826c3.312683 11.163208 20.193024 27.228638 10.413483 31.85733z" fill-rule="evenodd"/><path fill="#ffffff" d="m457.3401 245.27214c11.589874 7.7600555 61.649963 10.645142 85.90045 19.101822c24.250488 8.456665 38.565918 27.161285 59.602417 31.638184c21.036499 4.476898 45.385254 -0.0013122559 66.61664 -4.776764c21.231323 -4.7754517 42.657043 -15.519226 60.771423 -23.875946c18.11438 -8.35672 34.182495 -17.807648 47.914734 -26.264313c13.732178 -8.45668 26.394958 -24.57521 34.478638 -24.475708c8.083618 0.09951782 9.932861 11.343536 14.023132 25.0728c4.090332 13.729263 9.642395 32.33171 10.518738 57.30275c0.8763428 24.97107 -0.09875488 65.66171 -5.260681 92.52356c-5.1619263 26.861877 -12.952881 45.06894 -25.710876 68.647644c-12.758057 23.578705 -29.70337 50.440125 -50.83728 72.82468c-21.133972 22.38446 -47.528076 45.664185 -75.96631 61.48242c-28.438171 15.818237 -61.550354 26.263855 -94.662964 33.42682c-33.11261 7.162964 -68.7572 10.24707 -104.012634 9.550903c-35.25537 -0.696167 -76.646454 -5.5702515 -107.519714 -13.727905c-30.87326 -8.157654 -54.345703 -21.986023 -77.71982 -35.21814c-23.374146 -13.232117 -44.89731 -25.27179 -62.52501 -44.17462c-17.6277 -18.902771 -33.98938 -44.07196 -43.24118 -69.242035c-9.251801 -25.170074 -15.873276 -53.921875 -12.269623 -81.77844c3.6036377 -27.856598 19.672623 -62.18042 33.89151 -85.36105c14.218887 -23.180664 47.623764 -38.799835 51.4218 -53.72284c3.7980652 -14.923019 -21.036942 -18.504715 -28.633469 -35.81523c-7.5965424 -17.310516 -16.848343 -45.86238 -16.94577 -68.04787c-0.09741211 -22.185486 6.816757 -47.555054 16.361252 -65.06504c9.544495 -17.509995 26.102325 -29.747398 40.9057 -39.994915c14.803406 -10.24752 29.118408 -17.808987 47.914703 -21.490204c18.796295 -3.6812172 45.190002 -5.173519 64.86307 -0.5970993c19.673096 4.57642 37.690033 14.027809 53.175354 28.055618c15.485352 14.027805 31.750488 36.81039 39.736694 56.111233c7.986206 19.300842 9.252228 41.28862 8.180634 59.693817c-1.0716248 18.405197 -9.448395 37.704712 -14.610321 50.73735c-5.1619263 13.032654 -27.95111 19.698471 -16.361237 27.458527z" fill-rule="evenodd"/><path stroke="#000000" stroke-width="8.0" stroke-linejoin="round" stroke-linecap="butt" stroke-dasharray="32.0,24.0" d="m457.3401 245.27214c11.589874 7.7600555 61.649963 10.645142 85.90045 19.101822c24.250488 8.456665 38.565918 27.161285 59.602417 31.638184c21.036499 4.476898 45.385254 -0.0013122559 66.61664 -4.776764c21.231323 -4.7754517 42.657043 -15.519226 60.771423 -23.875946c18.11438 -8.35672 34.182495 -17.807648 47.914734 -26.264313c13.732178 -8.45668 26.394958 -24.57521 34.478638 -24.475708c8.083618 0.09951782 9.932861 11.343536 14.023132 25.0728c4.090332 13.729263 9.642395 32.33171 10.518738 57.30275c0.8763428 24.97107 -0.09875488 65.66171 -5.260681 92.52356c-5.1619263 26.861877 -12.952881 45.06894 -25.710876 68.647644c-12.758057 23.578705 -29.70337 50.440125 -50.83728 72.82468c-21.133972 22.38446 -47.528076 45.664185 -75.96631 61.48242c-28.438171 15.818237 -61.550354 26.263855 -94.662964 33.42682c-33.11261 7.162964 -68.7572 10.24707 -104.012634 9.550903c-35.25537 -0.696167 -76.646454 -5.5702515 -107.519714 -13.727905c-30.87326 -8.157654 -54.345703 -21.986023 -77.71982 -35.21814c-23.374146 -13.232117 -44.89731 -25.27179 -62.52501 -44.17462c-17.6277 -18.902771 -33.98938 -44.07196 -43.24118 -69.242035c-9.251801 -25.170074 -15.873276 -53.921875 -12.269623 -81.77844c3.6036377 -27.856598 19.672623 -62.18042 33.89151 -85.36105c14.218887 -23.180664 47.623764 -38.799835 51.4218 -53.72284c3.7980652 -14.923019 -21.036942 -18.504715 -28.633469 -35.81523c-7.5965424 -17.310516 -16.848343 -45.86238 -16.94577 -68.04787c-0.09741211 -22.185486 6.816757 -47.555054 16.361252 -65.06504c9.544495 -17.509995 26.102325 -29.747398 40.9057 -39.994915c14.803406 -10.24752 29.118408 -17.808987 47.914703 -21.490204c18.796295 -3.6812172 45.190002 -5.173519 64.86307 -0.5970993c19.673096 4.57642 37.690033 14.027809 53.175354 28.055618c15.485352 14.027805 31.750488 36.81039 39.736694 56.111233c7.986206 19.300842 9.252228 41.28862 8.180634 59.693817c-1.0716248 18.405197 -9.448395 37.704712 -14.610321 50.73735c-5.1619263 13.032654 -27.95111 19.698471 -16.361237 27.458527z" fill-rule="evenodd"/><path fill="#ffffff" d="m363.1767 386.45673c-3.4286804 4.6040955 -17.143463 16.555115 -20.572174 27.624664c-3.428711 11.06955 -5.192047 26.743652 0 38.792664c5.192047 12.048981 19.495178 24.78302 31.152222 33.501312c11.657043 8.718262 23.900269 14.49823 38.79004 18.80838c14.8897705 4.31015 33.895447 6.758545 50.548553 7.0525208c16.653107 0.2939453 30.954071 -0.39065552 49.370056 -5.288727c18.416016 -4.8980713 44.668884 -14.89151 61.125977 -24.099731c16.457153 -9.208221 26.155334 -18.513123 37.61682 -31.149628c11.461487 -12.636475 23.021423 -30.562988 31.152222 -44.66928c8.130798 -14.106293 14.791809 -32.327637 17.632568 -39.968506c2.8407593 -7.640869 2.6447754 -8.227905 -0.58795166 -5.876648c-3.232727 2.3512878 -6.661377 13.616791 -18.80841 19.984253c-12.146973 6.367462 -38.693787 15.3797 -54.073486 18.22049c-15.3797 2.8407593 -26.547668 0.6854553 -38.204712 -1.1758728c-11.657043 -1.8613281 -21.843811 -5.2900085 -31.737549 -9.992126c-9.893677 -4.7020874 -23.020538 -15.183716 -27.624634 -18.220459" fill-rule="evenodd"/><path stroke="#000000" stroke-width="8.0" stroke-linejoin="round" stroke-linecap="butt" d="m363.1767 386.45673c-3.4286804 4.6040955 -17.143463 16.555115 -20.572174 27.624664c-3.428711 11.06955 -5.192047 26.743652 0 38.792664c5.192047 12.048981 19.495178 24.78302 31.152222 33.501312c11.657043 8.718262 23.900269 14.49823 38.79004 18.80838c14.8897705 4.31015 33.895447 6.758545 50.548553 7.0525208c16.653107 0.2939453 30.954071 -0.39065552 49.370056 -5.288727c18.416016 -4.8980713 44.668884 -14.89151 61.125977 -24.099731c16.457153 -9.208221 26.155334 -18.513123 37.61682 -31.149628c11.461487 -12.636475 23.021423 -30.562988 31.152222 -44.66928c8.130798 -14.106293 14.791809 -32.327637 17.632568 -39.968506c2.8407593 -7.640869 2.6447754 -8.227905 -0.58795166 -5.876648c-3.232727 2.3512878 -6.661377 13.616791 -18.80841 19.984253c-12.146973 6.367462 -38.693787 15.3797 -54.073486 18.22049c-15.3797 2.8407593 -26.547668 0.6854553 -38.204712 -1.1758728c-11.657043 -1.8613281 -21.843811 -5.2900085 -31.737549 -9.992126c-9.893677 -4.7020874 -23.020538 -15.183716 -27.624634 -18.220459" fill-rule="evenodd"/><path fill="#ffffff" d="m285.00525 142.82677l0 0c0 -13.794067 8.143494 -24.976372 18.188965 -24.976372l0 0c4.8240356 0 9.45047 2.6314316 12.861572 7.315407c3.4110718 4.6839905 5.327423 11.036819 5.327423 17.660965l0 0c0 13.794083 -8.143494 24.97638 -18.188995 24.97638l0 0c-10.045471 0 -18.188965 -11.182297 -18.188965 -24.97638z" fill-rule="evenodd"/><path stroke="#000000" stroke-width="8.0" stroke-linejoin="round" stroke-linecap="butt" d="m285.00525 142.82677l0 0c0 -13.794067 8.143494 -24.976372 18.188965 -24.976372l0 0c4.8240356 0 9.45047 2.6314316 12.861572 7.315407c3.4110718 4.6839905 5.327423 11.036819 5.327423 17.660965l0 0c0 13.794083 -8.143494 24.97638 -18.188995 24.97638l0 0c-10.045471 0 -18.188965 -11.182297 -18.188965 -24.97638z" fill-rule="evenodd"/></g></svg>